<svg version="1.1" xmlns="http://www.w3.org/2000/svg" xmlns:xlink="http://www.w3.org/1999/xlink" width="744" height="835"><defs/><g><g/><g/><g/><g/><g/><g/><g/><g><rect fill="white" stroke="none" x="0" y="0" width="744" height="835"/></g><g><text fill="black" stroke="none" font-family="sans-serif" font-size="16.5pt" font-style="normal" font-weight="normal" text-decoration="normal" x="274.55637607835286" y="26.3876361" text-anchor="start" dominant-baseline="alphabetic">fetch-image-async</text></g><g/><g><path fill="none" stroke="black" paint-order="fill stroke markers" d=" M 258.3542457205729 103.26361593799999 L 258.3542457205729 835.0807237780001" stroke-miterlimit="10" stroke-width="1.4659797833333332" stroke-dasharray="13.532121076923076,5.863919133333333"/><path fill="none" stroke="black" paint-order="fill stroke markers" d=" M 535.1766310895833 103.26361593799999 L 535.1766310895833 835.0807237780001" stroke-miterlimit="10" stroke-width="1.4659797833333332" stroke-dasharray="13.532121076923076,5.863919133333333"/></g><g><path fill="none" stroke="none"/><g><path fill="white" stroke="black" paint-order="fill stroke markers" d=" M 206.52918234977605 55.765870957999994 L 310.1793090913698 55.765870957999994 L 310.1793090913698 103.26361593799999 L 206.52918234977605 103.26361593799999 L 206.52918234977605 55.765870957999994 Z" stroke-miterlimit="10" stroke-width="2.814681184" stroke-dasharray=""/></g><g><g/><text fill="black" stroke="none" font-family="sans-serif" font-size="11pt" font-style="normal" font-weight="normal" text-decoration="normal" x="225.61623912877604" y="85.67185853800001" text-anchor="start" dominant-baseline="alphabetic">UI thread</text></g><path fill="none" stroke="none"/><g><path fill="white" stroke="black" paint-order="fill stroke markers" d=" M 447.32078311185285 55.765870957999994 L 623.0324790673138 55.765870957999994 L 623.0324790673138 103.26361593799999 L 447.32078311185285 103.26361593799999 L 447.32078311185285 55.765870957999994 Z" stroke-miterlimit="10" stroke-width="2.814681184" stroke-dasharray=""/></g><g><g/><text fill="black" stroke="none" font-family="sans-serif" font-size="11pt" font-style="normal" font-weight="normal" text-decoration="normal" x="466.40783989085287" y="85.67185853800001" text-anchor="start" dominant-baseline="alphabetic">Background Thread</text></g></g><g><path fill="white" stroke="black" paint-order="fill stroke markers" d=" M 249.55836702057292 161.31641535799997 L 267.1501244205729 161.31641535799997 L 267.1501244205729 254.55272957799997 L 249.55836702057292 254.55272957799997 L 249.55836702057292 161.31641535799997" stroke-miterlimit="10" stroke-width="1.4659797833333332" stroke-dasharray=""/><path fill="white" stroke="black" paint-order="fill stroke markers" d=" M 249.55836702057292 298.532123078 L 267.1501244205729 298.532123078 L 267.1501244205729 409.360194698 L 249.55836702057292 409.360194698 L 249.55836702057292 298.532123078" stroke-miterlimit="10" stroke-width="1.4659797833333332" stroke-dasharray=""/><path fill="white" stroke="black" paint-order="fill stroke markers" d=" M 526.3807523895833 476.208872818 L 543.9725097895833 476.208872818 L 543.9725097895833 569.445187038 L 526.3807523895833 569.445187038 L 526.3807523895833 476.208872818" stroke-miterlimit="10" stroke-width="1.4659797833333332" stroke-dasharray=""/><path fill="white" stroke="black" paint-order="fill stroke markers" d=" M 249.55836702057292 680.273258658 L 267.1501244205729 680.273258658 L 267.1501244205729 773.5095728780001 L 249.55836702057292 773.5095728780001 L 249.55836702057292 680.273258658" stroke-miterlimit="10" stroke-width="1.4659797833333332" stroke-dasharray=""/><g><g><rect fill="white" stroke="none" x="29.612791623333337" y="138.44713073799997" width="199.12866247390625" height="22.86928462"/></g><text fill="black" stroke="none" font-family="sans-serif" font-size="11pt" font-style="normal" font-weight="normal" text-decoration="normal" x="32.251555233333335" y="154.279712398" text-anchor="start" dominant-baseline="alphabetic">Call View::FetchImageAsync</text></g><g><path fill="none" stroke="black" paint-order="fill stroke markers" d=" M 8.7958787 161.31641535799997 L 246.62640745390624 161.31641535799997" stroke-miterlimit="10" stroke-width="1.4659797833333332" stroke-dasharray=""/><g transform="translate(249.55836702057292,161.31641535799997) translate(-249.55836702057292,-161.31641535799997)"><path fill="none" stroke="black" paint-order="fill stroke markers" d=" M 234.8985691872396 153.9865164413333 L 248.0923872372396 161.31641535799997 L 234.8985691872396 168.64631427466665" stroke-miterlimit="10" stroke-width="1.4659797833333332"/></g></g><g><g><rect fill="white" stroke="none" x="311.82811145953127" y="187.70405145799995" width="178.67053259109375" height="22.86928462"/></g><text fill="black" stroke="none" font-family="sans-serif" font-size="11pt" font-style="normal" font-weight="normal" text-decoration="normal" x="314.4668750695313" y="203.53663311799997" text-anchor="start" dominant-baseline="alphabetic">Post LoadImageFromFile</text></g><g><path fill="none" stroke="black" paint-order="fill stroke markers" d=" M 267.1501244205729 210.57333607799995 L 532.2446715229166 210.57333607799995" stroke-miterlimit="10" stroke-width="1.4659797833333332" stroke-dasharray=""/><g transform="translate(535.1766310895833,210.57333607799995) translate(-535.1766310895833,-210.57333607799995)"><path fill="black" stroke="none" paint-order="stroke fill markers" d=" M 520.51683325625 203.24343716133328 L 535.1766310895833 210.57333607799995 L 520.51683325625 217.90323499466663 Z"/></g></g><path fill="white" stroke="black" paint-order="fill stroke markers" d=" M 179.14813338303384 324.919759178 L 321.727776398112 324.919759178 L 337.560358058112 340.752340838 L 337.560358058112 365.380801198 L 179.14813338303384 365.380801198 L 179.14813338303384 324.919759178 M 321.727776398112 324.919759178 L 321.727776398112 340.752340838 L 337.560358058112 340.752340838" stroke-miterlimit="10" stroke-width="1.4659797833333332" stroke-dasharray=""/><g><text fill="black" stroke="none" font-family="sans-serif" font-size="11pt" font-style="normal" font-weight="normal" text-decoration="normal" x="203.77659374303386" y="349.54821953799996" text-anchor="start" dominant-baseline="alphabetic">Run other tasks</text></g><g><g><rect fill="white" stroke="none" x="564.7894227129167" y="435.747830798" width="173.84590185378906" height="22.86928462"/></g><text fill="black" stroke="none" font-family="sans-serif" font-size="11pt" font-style="normal" font-weight="normal" text-decoration="normal" x="567.4281863229166" y="451.580412458" text-anchor="start" dominant-baseline="alphabetic">Call LoadImageFromFile</text></g><g><path fill="none" stroke="black" paint-order="fill stroke markers" d=" M 535.1766310895833 458.61711541799997 L 614.3395393895834 458.61711541799997 L 614.3395393895834 476.208872818 L 546.90446935625 476.208872818" stroke-miterlimit="10" stroke-width="1.4659797833333332" stroke-dasharray=""/><g transform="translate(543.9725097895833,476.208872818) translate(-543.9725097895833,-476.208872818)"><path fill="none" stroke="black" paint-order="fill stroke markers" d=" M 558.6323076229166 468.8789739013333 L 545.4384895729166 476.208872818 L 558.6323076229166 483.5387717346666" stroke-miterlimit="10" stroke-width="1.4659797833333332"/></g></g><g><g><rect fill="white" stroke="none" x="283.56909799390627" y="502.596508918" width="217.59680212234375" height="22.86928462"/></g><text fill="black" stroke="none" font-family="sans-serif" font-size="11pt" font-style="normal" font-weight="normal" text-decoration="normal" x="286.2078616039063" y="518.429090578" text-anchor="start" dominant-baseline="alphabetic">Post View::LoadImageCallback</text></g><g><path fill="none" stroke="black" paint-order="fill stroke markers" d=" M 526.3807523895833 525.465793538 L 261.28620528723957 525.465793538" stroke-miterlimit="10" stroke-width="1.4659797833333332" stroke-dasharray=""/><g transform="translate(258.3542457205729,525.465793538) translate(-258.3542457205729,-525.465793538)"><path fill="black" stroke="none" paint-order="stroke fill markers" d=" M 273.0140435539063 518.1358946213333 L 258.3542457205729 525.465793538 L 273.0140435539063 532.7956924546667 Z"/></g></g><g><g><rect fill="white" stroke="none" x="287.96703734390627" y="639.812216638" width="212.77217138503906" height="22.86928462"/></g><text fill="black" stroke="none" font-family="sans-serif" font-size="11pt" font-style="normal" font-weight="normal" text-decoration="normal" x="290.6058009539063" y="655.644798298" text-anchor="start" dominant-baseline="alphabetic">Call View::LoadImageCallback</text></g><g><path fill="none" stroke="black" paint-order="fill stroke markers" d=" M 258.3542457205729 662.681501258 L 337.5171540205729 662.681501258 L 337.5171540205729 680.273258658 L 270.08208398723957 680.273258658" stroke-miterlimit="10" stroke-width="1.4659797833333332" stroke-dasharray=""/><g transform="translate(267.1501244205729,680.273258658) translate(-267.1501244205729,-680.273258658)"><path fill="none" stroke="black" paint-order="fill stroke markers" d=" M 281.8099222539063 672.9433597413333 L 268.6161042039063 680.273258658 L 281.8099222539063 687.6031575746667" stroke-miterlimit="10" stroke-width="1.4659797833333332"/></g></g><g><g><rect fill="white" stroke="none" x="36.166121091106774" y="706.660894758" width="186.02200353835937" height="22.86928462"/></g><text fill="black" stroke="none" font-family="sans-serif" font-size="11pt" font-style="normal" font-weight="normal" text-decoration="normal" x="38.80488470110677" y="722.493476418" text-anchor="start" dominant-baseline="alphabetic">Call ImageView::SetImage</text></g><g><path fill="none" stroke="black" paint-order="fill stroke markers" d=" M 249.55836702057292 729.5301793780001 L 11.727838266666666 729.5301793780001" stroke-miterlimit="10" stroke-width="1.4659797833333332" stroke-dasharray=""/><g transform="translate(8.7958787,729.5301793780001) translate(-8.7958787,-729.5301793780001)"><path fill="none" stroke="black" paint-order="fill stroke markers" d=" M 23.45567653333333 722.2002804613334 L 10.261858483333333 729.5301793780001 L 23.45567653333333 736.8600782946668" stroke-miterlimit="10" stroke-width="1.4659797833333332"/></g></g></g><g/><g/></g></svg>