<svg version="1.1" xmlns="http://www.w3.org/2000/svg" xmlns:xlink="http://www.w3.org/1999/xlink" width="768" height="699"><defs/><g><g/><g/><g/><g/><g/><g/><g/><g/><g/><g/><g><rect fill="white" stroke="none" x="0" y="0" width="768" height="699"/></g><g><text fill="black" stroke="none" font-family="sans-serif" font-size="16.5pt" font-style="normal" font-weight="normal" text-decoration="normal" x="324.34175052278914" y="26.3876361" text-anchor="start" dominant-baseline="alphabetic">login-order</text></g><g/><g><path fill="none" stroke="black" paint-order="fill stroke markers" d=" M 156.28552013463542 103.26361593799999 L 156.28552013463542 699.624191798" stroke-miterlimit="10" stroke-width="1.4659797833333332" stroke-dasharray="13.532121076923076,5.863919133333333"/><path fill="none" stroke="black" paint-order="fill stroke markers" d=" M 313.4801131452474 103.26361593799999 L 313.4801131452474 699.624191798" stroke-miterlimit="10" stroke-width="1.4659797833333332" stroke-dasharray="13.532121076923076,5.863919133333333"/><path fill="none" stroke="black" paint-order="fill stroke markers" d=" M 467.2918215055912 103.26361593799999 L 467.2918215055912 699.624191798" stroke-miterlimit="10" stroke-width="1.4659797833333332" stroke-dasharray="13.532121076923076,5.863919133333333"/><path fill="none" stroke="black" paint-order="fill stroke markers" d=" M 621.0878289070235 103.26361593799999 L 621.0878289070235 699.624191798" stroke-miterlimit="10" stroke-width="1.4659797833333332" stroke-dasharray="13.532121076923076,5.863919133333333"/></g><g><path fill="none" stroke="none"/><g><path fill="white" stroke="black" paint-order="fill stroke markers" d=" M 95.9672545543659 55.765870957999994 L 216.60378571490497 55.765870957999994 L 216.60378571490497 103.26361593799999 L 95.9672545543659 103.26361593799999 L 95.9672545543659 55.765870957999994 Z" stroke-miterlimit="10" stroke-width="2.814681184" stroke-dasharray=""/></g><g><g/><text fill="black" stroke="none" font-family="sans-serif" font-size="11pt" font-style="normal" font-weight="normal" text-decoration="normal" x="115.05431133336589" y="85.67185853800001" text-anchor="start" dominant-baseline="alphabetic">LoginStatus</text></g><path fill="none" stroke="none"/><g><path fill="white" stroke="black" paint-order="fill stroke markers" d=" M 244.07807681302472 55.765870957999994 L 382.8821494774701 55.765870957999994 L 382.8821494774701 103.26361593799999 L 244.07807681302472 103.26361593799999 L 244.07807681302472 55.765870957999994 Z" stroke-miterlimit="10" stroke-width="2.814681184" stroke-dasharray=""/></g><g><g/><text fill="black" stroke="none" font-family="sans-serif" font-size="11pt" font-style="normal" font-weight="normal" text-decoration="normal" x="263.16513359202474" y="85.67185853800001" text-anchor="start" dominant-baseline="alphabetic">WelcomePage</text></g><path fill="none" stroke="none"/><g><path fill="white" stroke="black" paint-order="fill stroke markers" d=" M 400.4739068774701 55.765870957999994 L 534.1097361337123 55.765870957999994 L 534.1097361337123 103.26361593799999 L 400.4739068774701 103.26361593799999 L 400.4739068774701 55.765870957999994 Z" stroke-miterlimit="10" stroke-width="2.814681184" stroke-dasharray=""/></g><g><g/><text fill="black" stroke="none" font-family="sans-serif" font-size="11pt" font-style="normal" font-weight="normal" text-decoration="normal" x="419.5609636564701" y="85.67185853800001" text-anchor="start" dominant-baseline="alphabetic">SyncManager</text></g><path fill="none" stroke="none"/><g><path fill="white" stroke="black" paint-order="fill stroke markers" d=" M 556.1202942227501 55.765870957999994 L 686.055363591297 55.765870957999994 L 686.055363591297 103.26361593799999 L 556.1202942227501 103.26361593799999 L 556.1202942227501 55.765870957999994 Z" stroke-miterlimit="10" stroke-width="2.814681184" stroke-dasharray=""/></g><g><g/><text fill="black" stroke="none" font-family="sans-serif" font-size="11pt" font-style="normal" font-weight="normal" text-decoration="normal" x="575.2073510017501" y="85.67185853800001" text-anchor="start" dominant-baseline="alphabetic">ConfigModel</text></g></g><g><path fill="white" stroke="black" paint-order="fill stroke markers" d=" M 147.48964143463542 303.80965029799995 L 165.08139883463542 303.80965029799995 L 165.08139883463542 638.053040898 L 147.48964143463542 638.053040898 L 147.48964143463542 303.80965029799995" stroke-miterlimit="10" stroke-width="1.4659797833333332" stroke-dasharray=""/><path fill="white" stroke="black" paint-order="fill stroke markers" d=" M 304.6842344452474 353.06657101799993 L 322.2759918452474 353.06657101799993 L 322.2759918452474 495.5598059579999 L 304.6842344452474 495.5598059579999 L 304.6842344452474 353.06657101799993" stroke-miterlimit="10" stroke-width="1.4659797833333332" stroke-dasharray=""/><path fill="white" stroke="black" paint-order="fill stroke markers" d=" M 458.4959428055912 544.8167266779999 L 476.0877002055912 544.8167266779999 L 476.0877002055912 638.053040898 L 458.4959428055912 638.053040898 L 458.4959428055912 544.8167266779999" stroke-miterlimit="10" stroke-width="1.4659797833333332" stroke-dasharray=""/><g><g><rect fill="white" stroke="none" x="185.89831175796874" y="138.44713073799997" width="97.96900976394531" height="22.86928462"/></g><text fill="black" stroke="none" font-family="sans-serif" font-size="11pt" font-style="normal" font-weight="normal" text-decoration="normal" x="188.53707536796875" y="154.279712398" text-anchor="start" dominant-baseline="alphabetic">AddObserver</text></g><g><path fill="none" stroke="black" paint-order="fill stroke markers" d=" M 313.4801131452474 161.31641535799997 L 159.2174797013021 161.31641535799997" stroke-miterlimit="10" stroke-width="1.4659797833333332" stroke-dasharray=""/><g transform="translate(156.28552013463542,161.31641535799997) translate(-156.28552013463542,-161.31641535799997)"><path fill="none" stroke="black" paint-order="fill stroke markers" d=" M 170.94531796796875 153.9865164413333 L 157.75149991796874 161.31641535799997 L 170.94531796796875 168.64631427466665" stroke-miterlimit="10" stroke-width="1.4659797833333332"/></g></g><g><g><rect fill="white" stroke="none" x="262.80416593814067" y="187.70405145799995" width="97.96900976394531" height="22.86928462"/></g><text fill="black" stroke="none" font-family="sans-serif" font-size="11pt" font-style="normal" font-weight="normal" text-decoration="normal" x="265.4429295481407" y="203.53663311799997" text-anchor="start" dominant-baseline="alphabetic">AddObserver</text></g><g><path fill="none" stroke="black" paint-order="fill stroke markers" d=" M 467.2918215055912 210.57333607799995 L 159.2174797013021 210.57333607799995" stroke-miterlimit="10" stroke-width="1.4659797833333332" stroke-dasharray=""/><g transform="translate(156.28552013463542,210.57333607799995) translate(-156.28552013463542,-210.57333607799995)"><path fill="none" stroke="black" paint-order="fill stroke markers" d=" M 170.94531796796875 203.24343716133328 L 157.75149991796874 210.57333607799995 L 170.94531796796875 217.90323499466663" stroke-miterlimit="10" stroke-width="1.4659797833333332"/></g></g><g><g><rect fill="white" stroke="none" x="29.612791623333337" y="280.940365678" width="97.05993688796875" height="22.86928462"/></g><text fill="black" stroke="none" font-family="sans-serif" font-size="11pt" font-style="normal" font-weight="normal" text-decoration="normal" x="32.251555233333335" y="296.772947338" text-anchor="start" dominant-baseline="alphabetic">OnUserLogin</text></g><g><path fill="none" stroke="black" paint-order="fill stroke markers" d=" M 8.7958787 303.80965029799995 L 144.55768186796874 303.80965029799995" stroke-miterlimit="10" stroke-width="1.4659797833333332" stroke-dasharray=""/><g transform="translate(147.48964143463542,303.80965029799995) translate(-147.48964143463542,-303.80965029799995)"><path fill="black" stroke="none" paint-order="stroke fill markers" d=" M 132.8298436013021 296.4797513813333 L 147.48964143463542 303.80965029799995 L 132.8298436013021 311.1395492146666 Z"/></g></g><g><g><rect fill="white" stroke="none" x="202.1760369776953" y="330.19728639799996" width="65.41355932449218" height="22.86928462"/></g><text fill="black" stroke="none" font-family="sans-serif" font-size="11pt" font-style="normal" font-weight="normal" text-decoration="normal" x="204.81480058769532" y="346.029868058" text-anchor="start" dominant-baseline="alphabetic">OnLogin</text></g><g><path fill="none" stroke="black" paint-order="fill stroke markers" d=" M 165.08139883463542 353.06657101799993 L 301.75227487858075 353.06657101799993" stroke-miterlimit="10" stroke-width="1.4659797833333332" stroke-dasharray=""/><g transform="translate(304.6842344452474,353.06657101799993) translate(-304.6842344452474,-353.06657101799993)"><path fill="black" stroke="none" paint-order="stroke fill markers" d=" M 290.02443661191404 345.7366721013333 L 304.6842344452474 353.06657101799993 L 290.02443661191404 360.3964699346666 Z"/></g></g><g><g><rect fill="white" stroke="none" x="419.84128824562765" y="379.45420711799994" width="103.68124426101562" height="22.86928462"/></g><text fill="black" stroke="none" font-family="sans-serif" font-size="11pt" font-style="normal" font-weight="normal" text-decoration="normal" x="422.48005185562766" y="395.28678877799996" text-anchor="start" dominant-baseline="alphabetic">GetUserName</text></g><g><path fill="none" stroke="black" paint-order="fill stroke markers" d=" M 322.2759918452474 402.3234917379999 L 618.1558693403568 402.3234917379999" stroke-miterlimit="10" stroke-width="1.4659797833333332" stroke-dasharray=""/><g transform="translate(621.0878289070235,402.3234917379999) translate(-621.0878289070235,-402.3234917379999)"><path fill="none" stroke="black" paint-order="fill stroke markers" d=" M 606.4280310736902 394.99359282133327 L 619.6218491236903 402.3234917379999 L 606.4280310736902 409.65339065466657" stroke-miterlimit="10" stroke-width="1.4659797833333332"/></g></g><g><g><rect fill="white" stroke="none" x="439.3151499399636" y="428.7111278379999" width="64.73352087234375" height="22.86928462"/></g><text fill="black" stroke="none" font-family="sans-serif" font-size="11pt" font-style="normal" font-weight="normal" text-decoration="normal" x="441.9539135499636" y="444.54370949799994" text-anchor="start" dominant-baseline="alphabetic">INVALID</text></g><g><path fill="none" stroke="black" paint-order="fill stroke markers" d=" M 621.0878289070235 451.5804124579999 L 325.20795141191405 451.5804124579999" stroke-miterlimit="10" stroke-width="1.4659797833333332" stroke-dasharray="7.0367029599999995"/><g transform="translate(322.2759918452474,451.5804124579999) translate(-322.2759918452474,-451.5804124579999)"><path fill="none" stroke="black" paint-order="fill stroke markers" d=" M 336.93578967858076 444.25051354133325 L 323.74197162858076 451.5804124579999 L 336.93578967858076 458.91031137466655" stroke-miterlimit="10" stroke-width="1.4659797833333332"/></g></g><path fill="white" stroke="black" paint-order="fill stroke markers" d=" M 621.0878289070235 431.3498914479999 L 629.8837076070236 431.3498914479999 M 629.8837076070236 411.1193704379999 L 744.2386344355783 411.1193704379999 L 760.0712160955783 426.95195209799994 L 760.0712160955783 451.5804124579999 L 629.8837076070236 451.5804124579999 L 629.8837076070236 411.1193704379999 M 744.2386344355783 411.1193704379999 L 744.2386344355783 426.95195209799994 L 760.0712160955783 426.95195209799994" stroke-miterlimit="10" stroke-width="1.4659797833333332" stroke-dasharray=""/><g><text fill="black" stroke="none" font-family="sans-serif" font-size="11pt" font-style="normal" font-weight="normal" text-decoration="normal" x="654.5121679670235" y="435.7478307979999" text-anchor="start" dominant-baseline="alphabetic">EXCEPTION</text></g><g><g><rect fill="white" stroke="none" x="279.08189115786723" y="521.9474420579999" width="65.41355932449218" height="22.86928462"/></g><text fill="black" stroke="none" font-family="sans-serif" font-size="11pt" font-style="normal" font-weight="normal" text-decoration="normal" x="281.72065476786725" y="537.7800237179998" text-anchor="start" dominant-baseline="alphabetic">OnLogin</text></g><g><path fill="none" stroke="black" paint-order="fill stroke markers" d=" M 165.08139883463542 544.8167266779999 L 455.56398323892455 544.8167266779999" stroke-miterlimit="10" stroke-width="1.4659797833333332" stroke-dasharray=""/><g transform="translate(458.4959428055912,544.8167266779999) translate(-458.4959428055912,-544.8167266779999)"><path fill="black" stroke="none" paint-order="stroke fill markers" d=" M 443.83614497225784 537.4868277613332 L 458.4959428055912 544.8167266779999 L 443.83614497225784 552.1466255946666 Z"/></g></g><g><g><rect fill="white" stroke="none" x="496.9046131289245" y="571.2043627779999" width="103.36630285476562" height="22.86928462"/></g><text fill="black" stroke="none" font-family="sans-serif" font-size="11pt" font-style="normal" font-weight="normal" text-decoration="normal" x="499.5433767389245" y="587.0369444379999" text-anchor="start" dominant-baseline="alphabetic">UpdateConfig</text></g><g><path fill="none" stroke="black" paint-order="fill stroke markers" d=" M 476.0877002055912 594.0736473979999 L 618.1558693403568 594.0736473979999" stroke-miterlimit="10" stroke-width="1.4659797833333332" stroke-dasharray=""/><g transform="translate(621.0878289070235,594.0736473979999) translate(-621.0878289070235,-594.0736473979999)"><path fill="none" stroke="black" paint-order="fill stroke markers" d=" M 606.4280310736902 586.7437484813332 L 619.6218491236903 594.0736473979999 L 606.4280310736902 601.4035463146666" stroke-miterlimit="10" stroke-width="1.4659797833333332"/></g></g><path fill="white" stroke="black" paint-order="fill stroke markers" d=" M 621.0878289070235 573.843126388 L 629.8837076070236 573.843126388 M 629.8837076070236 553.6126053779999 L 724.2529319209299 553.6126053779999 L 740.0855135809298 569.4451870379999 L 740.0855135809298 594.0736473979999 L 629.8837076070236 594.0736473979999 L 629.8837076070236 553.6126053779999 M 724.2529319209299 553.6126053779999 L 724.2529319209299 569.4451870379999 L 740.0855135809298 569.4451870379999" stroke-miterlimit="10" stroke-width="1.4659797833333332" stroke-dasharray=""/><g><text fill="black" stroke="none" font-family="sans-serif" font-size="11pt" font-style="normal" font-weight="normal" text-decoration="normal" x="654.5121679670235" y="578.241065738" text-anchor="start" dominant-baseline="alphabetic">Updated</text></g></g><g/><g/><g/><g/></g></svg>