<svg version="1.1" xmlns="http://www.w3.org/2000/svg" xmlns:xlink="http://www.w3.org/1999/xlink" width="639" height="891"><defs/><g><g/><g/><g/><g/><g/><g/><g/><g/><g/><g/><g/><g><rect fill="white" stroke="none" x="0" y="0" width="639" height="891"/></g><g><text fill="black" stroke="none" font-family="sans-serif" font-size="16.5pt" font-style="normal" font-weight="normal" text-decoration="normal" x="247.41362011069145" y="26.3876361" text-anchor="start" dominant-baseline="alphabetic">sync-upgrade</text></g><g/><g><path fill="none" stroke="black" paint-order="fill stroke markers" d=" M 192.94981151647136 103.26361593799999 L 192.94981151647136 891.3743474580001" stroke-miterlimit="10" stroke-width="1.4659797833333332" stroke-dasharray="13.532121076923076,5.863919133333333"/><path fill="none" stroke="black" paint-order="fill stroke markers" d=" M 372.21313011302084 103.26361593799999 L 372.21313011302084 891.3743474580001" stroke-miterlimit="10" stroke-width="1.4659797833333332" stroke-dasharray="13.532121076923076,5.863919133333333"/><path fill="none" stroke="black" paint-order="fill stroke markers" d=" M 557.872786798047 103.26361593799999 L 557.872786798047 891.3743474580001" stroke-miterlimit="10" stroke-width="1.4659797833333332" stroke-dasharray="13.532121076923076,5.863919133333333"/></g><g><path fill="none" stroke="none"/><g><path fill="white" stroke="black" paint-order="fill stroke markers" d=" M 127.98227683219793 55.765870957999994 L 257.91734620074476 55.765870957999994 L 257.91734620074476 103.26361593799999 L 127.98227683219793 103.26361593799999 L 127.98227683219793 55.765870957999994 Z" stroke-miterlimit="10" stroke-width="2.814681184" stroke-dasharray=""/></g><g><g/><text fill="black" stroke="none" font-family="sans-serif" font-size="11pt" font-style="normal" font-weight="normal" text-decoration="normal" x="147.06933361119792" y="85.67185853800001" text-anchor="start" dominant-baseline="alphabetic">ConfigModel</text></g><path fill="none" stroke="none"/><g><path fill="white" stroke="black" paint-order="fill stroke markers" d=" M 305.3952154848997 55.765870957999994 L 439.03104474114195 55.765870957999994 L 439.03104474114195 103.26361593799999 L 305.3952154848997 103.26361593799999 L 305.3952154848997 55.765870957999994 Z" stroke-miterlimit="10" stroke-width="2.814681184" stroke-dasharray=""/></g><g><g/><text fill="black" stroke="none" font-family="sans-serif" font-size="11pt" font-style="normal" font-weight="normal" text-decoration="normal" x="324.48227226389974" y="85.67185853800001" text-anchor="start" dominant-baseline="alphabetic">SyncManager</text></g><path fill="none" stroke="none"/><g><path fill="white" stroke="black" paint-order="fill stroke markers" d=" M 484.984719887211 55.765870957999994 L 630.7608537088829 55.765870957999994 L 630.7608537088829 103.26361593799999 L 484.984719887211 103.26361593799999 L 484.984719887211 55.765870957999994 Z" stroke-miterlimit="10" stroke-width="2.814681184" stroke-dasharray=""/></g><g><g/><text fill="black" stroke="none" font-family="sans-serif" font-size="11pt" font-style="normal" font-weight="normal" text-decoration="normal" x="504.071776666211" y="85.67185853800001" text-anchor="start" dominant-baseline="alphabetic">ConfigUpgrade</text></g></g><g><path fill="white" stroke="black" paint-order="fill stroke markers" d=" M 184.15393281647135 254.55272957799997 L 201.74569021647136 254.55272957799997 L 201.74569021647136 829.8031965580001 L 184.15393281647135 829.8031965580001 L 184.15393281647135 254.55272957799997" stroke-miterlimit="10" stroke-width="1.4659797833333332" stroke-dasharray=""/><path fill="white" stroke="black" paint-order="fill stroke markers" d=" M 363.41725141302084 303.80965029799995 L 381.00900881302084 303.80965029799995 L 381.00900881302084 829.8031965580001 L 363.41725141302084 829.8031965580001 L 363.41725141302084 303.80965029799995" stroke-miterlimit="10" stroke-width="1.4659797833333332" stroke-dasharray=""/><path fill="white" stroke="black" paint-order="fill stroke markers" d=" M 549.0769080980469 353.06657101799993 L 566.668665498047 353.06657101799993 L 566.668665498047 402.3234917379999 L 549.0769080980469 402.3234917379999 L 549.0769080980469 353.06657101799993" stroke-miterlimit="10" stroke-width="1.4659797833333332" stroke-dasharray=""/><path fill="white" stroke="black" paint-order="fill stroke markers" d=" M 372.21313011302084 451.5804124579999 L 389.80488751302084 451.5804124579999 L 389.80488751302084 785.8238030580001 L 372.21313011302084 785.8238030580001 L 372.21313011302084 451.5804124579999" stroke-miterlimit="10" stroke-width="1.4659797833333332" stroke-dasharray=""/><path fill="white" stroke="black" paint-order="fill stroke markers" d=" M 549.0769080980469 500.8373331779999 L 566.668665498047 500.8373331779999 L 566.668665498047 550.0942538979999 L 549.0769080980469 550.0942538979999 L 549.0769080980469 500.8373331779999" stroke-miterlimit="10" stroke-width="1.4659797833333332" stroke-dasharray=""/><path fill="white" stroke="black" paint-order="fill stroke markers" d=" M 381.00900881302084 599.351174618 L 398.60076621302085 599.351174618 L 398.60076621302085 741.844409558 L 381.00900881302084 741.844409558 L 381.00900881302084 599.351174618" stroke-miterlimit="10" stroke-width="1.4659797833333332" stroke-dasharray=""/><path fill="white" stroke="black" paint-order="fill stroke markers" d=" M 549.0769080980469 648.608095338 L 566.668665498047 648.608095338 L 566.668665498047 697.865016058 L 549.0769080980469 697.865016058 L 549.0769080980469 648.608095338" stroke-miterlimit="10" stroke-width="1.4659797833333332" stroke-dasharray=""/><g><g><rect fill="white" stroke="none" x="233.59696593277346" y="138.44713073799997" width="97.96900976394531" height="22.86928462"/></g><text fill="black" stroke="none" font-family="sans-serif" font-size="11pt" font-style="normal" font-weight="normal" text-decoration="normal" x="236.23572954277347" y="154.279712398" text-anchor="start" dominant-baseline="alphabetic">AddObserver</text></g><g><path fill="none" stroke="black" paint-order="fill stroke markers" d=" M 372.21313011302084 161.31641535799997 L 195.88177108313803 161.31641535799997" stroke-miterlimit="10" stroke-width="1.4659797833333332" stroke-dasharray=""/><g transform="translate(192.94981151647136,161.31641535799997) translate(-192.94981151647136,-161.31641535799997)"><path fill="none" stroke="black" paint-order="fill stroke markers" d=" M 207.60960934980469 153.9865164413333 L 194.41579129980468 161.31641535799997 L 207.60960934980469 168.64631427466665" stroke-miterlimit="10" stroke-width="1.4659797833333332"/></g></g><g><g><rect fill="white" stroke="none" x="29.612791623333337" y="231.68344495799997" width="133.72422826980468" height="22.86928462"/></g><text fill="black" stroke="none" font-family="sans-serif" font-size="11pt" font-style="normal" font-weight="normal" text-decoration="normal" x="32.251555233333335" y="247.51602661799998" text-anchor="start" dominant-baseline="alphabetic">OnConfigUpdated</text></g><g><path fill="none" stroke="black" paint-order="fill stroke markers" d=" M 8.7958787 254.55272957799997 L 181.22197324980468 254.55272957799997" stroke-miterlimit="10" stroke-width="1.4659797833333332" stroke-dasharray=""/><g transform="translate(184.15393281647135,254.55272957799997) translate(-184.15393281647135,-254.55272957799997)"><path fill="black" stroke="none" paint-order="stroke fill markers" d=" M 169.49413498313803 247.2228306613333 L 184.15393281647135 254.55272957799997 L 169.49413498313803 261.8826284946666 Z"/></g></g><g><g><rect fill="white" stroke="none" x="222.5626031398047" y="280.940365678" width="120.03773534988281" height="22.86928462"/></g><text fill="black" stroke="none" font-family="sans-serif" font-size="11pt" font-style="normal" font-weight="normal" text-decoration="normal" x="225.20136674980472" y="296.772947338" text-anchor="start" dominant-baseline="alphabetic">OnDataUpdated</text></g><g><path fill="none" stroke="black" paint-order="fill stroke markers" d=" M 201.74569021647136 303.80965029799995 L 360.4852918463542 303.80965029799995" stroke-miterlimit="10" stroke-width="1.4659797833333332" stroke-dasharray=""/><g transform="translate(363.41725141302084,303.80965029799995) translate(-363.41725141302084,-303.80965029799995)"><path fill="black" stroke="none" paint-order="stroke fill markers" d=" M 348.7574535796875 296.4797513813333 L 363.41725141302084 303.80965029799995 L 348.7574535796875 311.1395492146666 Z"/></g></g><g><g><rect fill="white" stroke="none" x="410.6218004363542" y="330.19728639799996" width="108.84231603835937" height="22.86928462"/></g><text fill="black" stroke="none" font-family="sans-serif" font-size="11pt" font-style="normal" font-weight="normal" text-decoration="normal" x="413.2605640463542" y="346.029868058" text-anchor="start" dominant-baseline="alphabetic">CheckUpgrade</text></g><g><path fill="none" stroke="black" paint-order="fill stroke markers" d=" M 381.00900881302084 353.06657101799993 L 546.1449485313802 353.06657101799993" stroke-miterlimit="10" stroke-width="1.4659797833333332" stroke-dasharray=""/><g transform="translate(549.0769080980469,353.06657101799993) translate(-549.0769080980469,-353.06657101799993)"><path fill="none" stroke="black" paint-order="fill stroke markers" d=" M 534.4171102647136 345.7366721013333 L 547.6109283147136 353.06657101799993 L 534.4171102647136 360.3964699346666" stroke-miterlimit="10" stroke-width="1.4659797833333332"/></g></g><g><g><rect fill="white" stroke="none" x="323.7281477298763" y="379.45420711799994" width="103.36630285476562" height="22.86928462"/></g><text fill="black" stroke="none" font-family="sans-serif" font-size="11pt" font-style="normal" font-weight="normal" text-decoration="normal" x="326.3669113398763" y="395.28678877799996" text-anchor="start" dominant-baseline="alphabetic">UpdateConfig</text></g><g><path fill="none" stroke="black" paint-order="fill stroke markers" d=" M 549.0769080980469 402.3234917379999 L 204.67764978313804 402.3234917379999" stroke-miterlimit="10" stroke-width="1.4659797833333332" stroke-dasharray=""/><g transform="translate(201.74569021647136,402.3234917379999) translate(-201.74569021647136,-402.3234917379999)"><path fill="none" stroke="black" paint-order="fill stroke markers" d=" M 216.4054880498047 394.99359282133327 L 203.21166999980468 402.3234917379999 L 216.4054880498047 409.65339065466657" stroke-miterlimit="10" stroke-width="1.4659797833333332"/></g></g><g><g><rect fill="white" stroke="none" x="226.9605424898047" y="428.7111278379999" width="120.03773534988281" height="22.86928462"/></g><text fill="black" stroke="none" font-family="sans-serif" font-size="11pt" font-style="normal" font-weight="normal" text-decoration="normal" x="229.59930609980472" y="444.54370949799994" text-anchor="start" dominant-baseline="alphabetic">OnDataUpdated</text></g><g><path fill="none" stroke="black" paint-order="fill stroke markers" d=" M 201.74569021647136 451.5804124579999 L 369.2811705463542 451.5804124579999" stroke-miterlimit="10" stroke-width="1.4659797833333332" stroke-dasharray=""/><g transform="translate(372.21313011302084,451.5804124579999) translate(-372.21313011302084,-451.5804124579999)"><path fill="black" stroke="none" paint-order="stroke fill markers" d=" M 357.5533322796875 444.25051354133325 L 372.21313011302084 451.5804124579999 L 357.5533322796875 458.91031137466655 Z"/></g></g><g><g><rect fill="white" stroke="none" x="415.0197397863542" y="477.9680485579999" width="108.84231603835937" height="22.86928462"/></g><text fill="black" stroke="none" font-family="sans-serif" font-size="11pt" font-style="normal" font-weight="normal" text-decoration="normal" x="417.6585033963542" y="493.8006302179999" text-anchor="start" dominant-baseline="alphabetic">CheckUpgrade</text></g><g><path fill="none" stroke="black" paint-order="fill stroke markers" d=" M 389.80488751302084 500.8373331779999 L 546.1449485313802 500.8373331779999" stroke-miterlimit="10" stroke-width="1.4659797833333332" stroke-dasharray=""/><g transform="translate(549.0769080980469,500.8373331779999) translate(-549.0769080980469,-500.8373331779999)"><path fill="none" stroke="black" paint-order="fill stroke markers" d=" M 534.4171102647136 493.50743426133323 L 547.6109283147136 500.8373331779999 L 534.4171102647136 508.16723209466653" stroke-miterlimit="10" stroke-width="1.4659797833333332"/></g></g><g><g><rect fill="white" stroke="none" x="323.7281477298763" y="527.2249692779999" width="103.36630285476562" height="22.86928462"/></g><text fill="black" stroke="none" font-family="sans-serif" font-size="11pt" font-style="normal" font-weight="normal" text-decoration="normal" x="326.3669113398763" y="543.0575509379998" text-anchor="start" dominant-baseline="alphabetic">UpdateConfig</text></g><g><path fill="none" stroke="black" paint-order="fill stroke markers" d=" M 549.0769080980469 550.0942538979999 L 204.67764978313804 550.0942538979999" stroke-miterlimit="10" stroke-width="1.4659797833333332" stroke-dasharray=""/><g transform="translate(201.74569021647136,550.0942538979999) translate(-201.74569021647136,-550.0942538979999)"><path fill="none" stroke="black" paint-order="fill stroke markers" d=" M 216.4054880498047 542.7643549813332 L 203.21166999980468 550.0942538979999 L 216.4054880498047 557.4241528146666" stroke-miterlimit="10" stroke-width="1.4659797833333332"/></g></g><g><g><rect fill="white" stroke="none" x="231.3584818398047" y="576.4818899979999" width="120.03773534988281" height="22.86928462"/></g><text fill="black" stroke="none" font-family="sans-serif" font-size="11pt" font-style="normal" font-weight="normal" text-decoration="normal" x="233.99724544980472" y="592.3144716579999" text-anchor="start" dominant-baseline="alphabetic">OnDataUpdated</text></g><g><path fill="none" stroke="black" paint-order="fill stroke markers" d=" M 201.74569021647136 599.351174618 L 378.0770492463542 599.351174618" stroke-miterlimit="10" stroke-width="1.4659797833333332" stroke-dasharray=""/><g transform="translate(381.00900881302084,599.351174618) translate(-381.00900881302084,-599.351174618)"><path fill="black" stroke="none" paint-order="stroke fill markers" d=" M 366.3492109796875 592.0212757013333 L 381.00900881302084 599.351174618 L 366.3492109796875 606.6810735346667 Z"/></g></g><g><g><rect fill="white" stroke="none" x="419.4176791363542" y="625.738810718" width="108.84231603835937" height="22.86928462"/></g><text fill="black" stroke="none" font-family="sans-serif" font-size="11pt" font-style="normal" font-weight="normal" text-decoration="normal" x="422.0564427463542" y="641.5713923779999" text-anchor="start" dominant-baseline="alphabetic">CheckUpgrade</text></g><g><path fill="none" stroke="black" paint-order="fill stroke markers" d=" M 398.60076621302085 648.608095338 L 546.1449485313802 648.608095338" stroke-miterlimit="10" stroke-width="1.4659797833333332" stroke-dasharray=""/><g transform="translate(549.0769080980469,648.608095338) translate(-549.0769080980469,-648.608095338)"><path fill="none" stroke="black" paint-order="fill stroke markers" d=" M 534.4171102647136 641.2781964213333 L 547.6109283147136 648.608095338 L 534.4171102647136 655.9379942546667" stroke-miterlimit="10" stroke-width="1.4659797833333332"/></g></g><g><g><rect fill="white" stroke="none" x="323.7281477298763" y="674.995731438" width="103.36630285476562" height="22.86928462"/></g><text fill="black" stroke="none" font-family="sans-serif" font-size="11pt" font-style="normal" font-weight="normal" text-decoration="normal" x="326.3669113398763" y="690.828313098" text-anchor="start" dominant-baseline="alphabetic">UpdateConfig</text></g><g><path fill="none" stroke="black" paint-order="fill stroke markers" d=" M 549.0769080980469 697.865016058 L 204.67764978313804 697.865016058" stroke-miterlimit="10" stroke-width="1.4659797833333332" stroke-dasharray=""/><g transform="translate(201.74569021647136,697.865016058) translate(-201.74569021647136,-697.865016058)"><path fill="none" stroke="black" paint-order="fill stroke markers" d=" M 216.4054880498047 690.5351171413333 L 203.21166999980468 697.865016058 L 216.4054880498047 705.1949149746667" stroke-miterlimit="10" stroke-width="1.4659797833333332"/></g></g></g><g/><g/><g/></g></svg>