<svg width="16px" height="16px" viewBox="0 0 800 1250" version="1.1" xmlns="http://www.w3.org/2000/svg" xmlns:xlink="http://www.w3.org/1999/xlink"><path d="m 464,128 q 0,33 -23.5,56.5 Q 417,208 384,208 351,208 327.5,184.5 304,161 304,128 304,95 327.5,71.5 351,48 384,48 417,48 440.5,71.5 464,95 464,128 z m 208,160 v 704 q 0,13 -9.5,22.5 -9.5,9.5 -22.5,9.5 H 128 q -13,0 -22.5,-9.5 Q 96,1005 96,992 V 288 q 0,-13 9.5,-22.5 Q 115,256 128,256 h 512 q 13,0 22.5,9.5 9.5,9.5 9.5,22.5 z m -192,848 q 0,16 -16,16 H 304 q -16,0 -16,-16 0,-16 16,-16 h 160 q 16,0 16,16 z m 288,16 V 128 Q 768,76 730,38 692,0 640,0 H 128 Q 76,0 38,38 0,76 0,128 v 1024 q 0,52 38,90 38,38 90,38 h 512 q 52,0 90,-38 38,-38 38,-90 z" id="Shape" /></svg>