<svg width="16px" height="16px" viewBox="-5 -5 30 30" version="1.1" xmlns="http://www.w3.org/2000/svg" xmlns:xlink="http://www.w3.org/1999/xlink"><path d="M18.75,17.58 C19.3900032,17.58 19.9899972,17.7449983 20.55,18.075 C21.1100028,18.4050017 21.5549984,18.8499972 21.885,19.41 C22.2150017,19.9700028 22.38,20.5699968 22.38,21.21 C22.38,21.8500032 22.2150017,22.4549971 21.885,23.025 C21.5549984,23.5950028 21.1100028,24.0499983 20.55,24.39 C19.9899972,24.7300017 19.3900032,24.9 18.75,24.9 C18.1099968,24.9 17.5100028,24.7300017 16.95,24.39 C16.3899972,24.0499983 15.9450016,23.5950028 15.615,23.025 C15.2849983,22.4549971 15.12,21.8500032 15.12,21.21 C15.12,20.809998 15.1399998,20.5400007 15.18,20.4 L6.33,15.24 C5.6099964,15.9000033 4.750005,16.23 3.75,16.23 C3.0899967,16.23 2.4700029,16.0600017 1.89,15.72 C1.3099971,15.3799983 0.8500017,14.9200029 0.51,14.34 C0.1699983,13.7599971 0,13.1400033 0,12.48 C0,11.8199967 0.1699983,11.2000029 0.51,10.62 C0.8500017,10.0399971 1.3099971,9.5800017 1.89,9.24 C2.4700029,8.8999983 3.0899967,8.73 3.75,8.73 C4.750005,8.73 5.6099964,9.0599967 6.33,9.72 L15.12,4.62 C15.0399996,4.219998 15,3.9300009 15,3.75 C15,3.0899967 15.1699983,2.4700029 15.51,1.89 C15.8500017,1.3099971 16.3099971,0.8500017 16.89,0.51 C17.4700029,0.1699983 18.0899967,0 18.75,0 C19.4100033,0 20.0299971,0.1699983 20.61,0.51 C21.1900029,0.8500017 21.6499983,1.3099971 21.99,1.89 C22.3300017,2.4700029 22.5,3.0899967 22.5,3.75 C22.5,4.4100033 22.3300017,5.0299971 21.99,5.61 C21.6499983,6.1900029 21.1900029,6.6499983 20.61,6.99 C20.0299971,7.3300017 19.4100033,7.5 18.75,7.5 C17.8299954,7.5 16.970004,7.1500035 16.17,6.45 L7.38,11.61 C7.4600004,11.9700018 7.5,12.249999 7.5,12.45 C7.5,12.650001 7.4600004,12.949998 7.38,13.35 L16.29,18.51 C17.0100036,17.8899969 17.8299954,17.58 18.75,17.58 Z"></path></svg>